<?xml version="1.0" standalone="no"?>
<!DOCTYPE svg PUBLIC "-//W3C//DTD SVG 20010904//EN"
 "http://www.w3.org/TR/2001/REC-SVG-20010904/DTD/svg10.dtd">
<svg version="1.0" xmlns="http://www.w3.org/2000/svg"
 width="1422.000000pt" height="862.000000pt" viewBox="0 0 1422.000000 862.000000"
 preserveAspectRatio="xMidYMid meet">

<g transform="translate(0.000000,862.000000) scale(0.100000,-0.100000)"
fill="#000000" stroke="none">
<path d="M1470 8593 c-45 -16 -104 -53 -128 -83 -7 -8 -27 -42 -45 -75 l-32
-60 -3 -3835 c-2 -2730 0 -3846 8 -3872 l11 -38 2299 0 2300 0 14 -35 c18 -42
28 -45 20 -6 -5 24 -2 29 18 34 30 9 2296 9 2326 0 20 -5 23 -10 18 -36 -5
-25 -4 -28 8 -17 8 6 16 21 18 33 l3 22 1199 3 1198 2 -6 83 c-3 45 -7 1273
-8 2729 -2 1457 -6 2648 -10 2648 -12 0 -10 274 2 286 5 5 10 159 10 379 1
204 6 426 12 495 6 69 12 139 13 155 2 31 5 41 33 110 48 118 190 277 297 330
33 17 61 33 63 38 2 4 418 7 924 7 l920 0 -4 228 c-4 177 -8 238 -21 279 -24
71 -93 145 -172 183 l-63 30 -5588 -1 c-5019 0 -5594 -2 -5634 -16z m6360
-3709 c0 -17 -22 -23 -43 -12 -12 6 -23 5 -33 -3 -11 -9 -14 -8 -14 3 0 23 9
27 51 25 23 -1 39 -6 39 -13z m-1582 -56 c3 -15 -4 -18 -42 -18 -39 0 -46 -3
-46 -20 0 -17 7 -20 40 -20 33 0 40 -3 40 -20 0 -17 -7 -20 -40 -20 -33 0 -40
-3 -40 -20 0 -17 7 -20 46 -20 38 0 45 -3 42 -17 -3 -15 -16 -19 -66 -21 l-62
-3 0 101 0 101 62 -3 c50 -2 63 -6 66 -20z m108 -45 l29 -67 26 65 c21 54 28
64 49 64 25 0 25 -1 25 -95 0 -82 -2 -95 -17 -98 -16 -3 -18 5 -19 60 l0 63
-29 -62 c-16 -35 -33 -63 -38 -63 -6 0 -21 28 -35 63 l-26 62 -1 -62 c0 -56
-2 -63 -20 -63 -19 0 -20 7 -20 100 0 98 0 100 23 100 19 0 29 -12 53 -67z
m348 48 c21 -17 21 -75 0 -95 -8 -9 -31 -16 -50 -16 -32 0 -34 -2 -34 -35 0
-28 -4 -35 -20 -35 -19 0 -20 7 -20 101 l0 101 54 -4 c30 -3 62 -10 70 -17z
m173 -3 c20 -21 20 -64 0 -86 -15 -16 -15 -20 3 -47 25 -37 25 -45 1 -45 -11
0 -28 15 -41 35 -12 19 -28 35 -36 35 -9 0 -14 -11 -14 -35 0 -28 -4 -35 -20
-35 -19 0 -20 7 -20 101 l0 101 56 -4 c31 -3 62 -11 71 -20z m190 -2 c24 -21
28 -32 28 -75 0 -60 -22 -89 -78 -98 -31 -5 -40 -1 -67 25 -86 87 25 227 117
148z m194 -2 c25 -25 34 -80 20 -117 -13 -32 -63 -57 -116 -57 l-35 0 0 101 0
101 56 -4 c37 -3 62 -11 75 -24z m99 -54 c5 -70 7 -75 29 -78 36 -6 51 22 51
96 0 55 2 63 18 60 26 -5 30 -136 5 -167 -27 -32 -82 -38 -116 -11 -25 20 -27
26 -27 101 0 71 2 80 18 77 14 -3 18 -17 22 -78z m279 67 c32 -16 48 -57 22
-57 -10 0 -24 7 -31 15 -15 18 -51 20 -68 3 -7 -7 -12 -28 -12 -48 0 -20 5
-41 12 -48 17 -17 53 -15 68 3 7 8 21 15 31 15 16 0 17 -3 8 -24 -6 -13 -22
-29 -36 -35 -20 -9 -23 -14 -14 -25 9 -11 7 -18 -10 -30 -26 -18 -48 -10 -24
8 15 11 12 16 -29 50 -43 35 -46 41 -46 84 1 82 61 124 129 89z m176 -4 c19
-47 55 -158 55 -170 0 -23 -30 -14 -42 12 -8 19 -19 25 -43 25 -24 0 -35 -6
-43 -25 -12 -26 -42 -35 -42 -12 0 12 36 123 55 170 4 9 17 17 30 17 13 0 26
-8 30 -17z m200 7 c64 -24 67 -143 5 -175 -43 -22 -68 -19 -101 14 -23 23 -29
38 -29 71 0 33 6 48 29 71 31 31 53 35 96 19z"/>
<path d="M6620 4780 c0 -28 3 -31 28 -28 21 2 27 8 27 28 0 20 -6 26 -27 28
-25 3 -28 0 -28 -28z"/>
<path d="M6790 4786 c0 -22 4 -26 31 -26 26 0 30 3 27 23 -2 16 -11 23 -30 25
-24 3 -28 0 -28 -22z"/>
<path d="M6971 4791 c-15 -27 -14 -63 2 -85 19 -25 58 -17 77 17 13 24 13 30
0 55 -20 34 -64 42 -79 13z"/>
<path d="M7170 4750 c0 -56 1 -60 23 -60 49 0 76 70 41 104 -8 9 -26 16 -40
16 -23 0 -24 -3 -24 -60z"/>
<path d="M7773 4765 c-11 -33 -10 -35 12 -35 23 0 23 2 13 33 -6 17 -12 33
-13 34 -1 2 -6 -13 -12 -32z"/>
<path d="M7942 4798 c-15 -15 -16 -63 -2 -89 12 -21 50 -25 68 -7 7 7 12 28
12 48 0 41 -14 60 -45 60 -12 0 -26 -5 -33 -12z"/>
<path d="M12345 7869 c-669 -4 -1109 -10 -1140 -16 -95 -20 -153 -43 -212 -86
-148 -110 -230 -250 -253 -436 -13 -97 -13 -6672 -1 -6756 33 -224 142 -384
326 -475 77 -39 86 -40 235 -52 203 -17 2368 -7 2443 10 140 33 288 152 359
287 42 81 54 123 68 232 7 51 10 1189 10 3260 0 1947 3 3184 9 3187 5 4 6 20
1 39 -4 17 -11 91 -14 162 -3 72 -12 160 -20 198 -39 176 -189 348 -357 406
-49 17 -181 35 -319 44 -25 2 -535 0 -1135 -4z m796 -3989 c13 -7 19 -7 19 0
0 5 7 10 15 10 16 0 19 -9 7 -27 -7 -12 -102 -15 -102 -3 0 9 23 30 33 30 4 0
17 -5 28 -10z m-1683 -72 c3 -14 -6 -17 -45 -20 -44 -3 -48 -5 -51 -30 -3 -27
-2 -28 42 -28 39 0 46 -3 46 -20 0 -17 -7 -20 -45 -20 -41 0 -45 -2 -45 -25 0
-23 3 -25 50 -25 43 0 50 -3 50 -20 0 -18 -7 -20 -70 -20 l-70 0 0 115 0 116
67 -3 c54 -2 68 -6 71 -20z m95 -5 c8 -16 20 -46 27 -68 7 -22 16 -44 20 -48
4 -5 20 25 36 65 25 63 32 73 54 73 l25 0 3 -112 3 -113 -27 0 c-26 0 -26 0
-22 65 2 36 1 65 -2 65 -3 0 -15 -28 -26 -62 -26 -83 -48 -85 -76 -8 -30 81
-38 83 -38 7 0 -60 -2 -67 -20 -67 -19 0 -20 7 -20 108 0 60 3 112 7 115 15
16 43 5 56 -20z m375 16 c18 -6 35 -22 42 -39 24 -57 -16 -109 -82 -110 -25 0
-28 -4 -28 -35 0 -28 -4 -35 -20 -35 -19 0 -20 7 -20 108 0 60 3 112 7 115 10
11 66 8 101 -4z m212 -14 c24 -22 27 -81 4 -106 -14 -16 -14 -21 6 -58 l20
-41 -25 0 c-19 0 -29 9 -45 40 -11 22 -27 40 -35 40 -11 0 -15 -11 -15 -40 0
-33 -3 -40 -20 -40 -19 0 -20 7 -20 116 l0 116 55 -4 c34 -3 62 -12 75 -23z
m211 -1 c11 -10 24 -34 29 -54 21 -79 -20 -150 -85 -150 -47 0 -71 14 -91 52
-41 79 17 187 94 175 19 -4 43 -14 53 -23z m197 5 c28 -18 42 -52 42 -105 0
-37 -6 -51 -29 -75 -26 -25 -37 -29 -85 -29 l-56 0 0 116 0 117 54 -6 c29 -3
63 -11 74 -18z m120 -64 c3 -86 12 -105 48 -105 32 0 44 32 44 121 0 62 2 70
18 67 14 -3 17 -17 20 -89 2 -74 0 -89 -18 -112 -18 -22 -30 -27 -66 -27 -72
0 -84 20 -84 136 0 86 2 95 18 92 14 -3 17 -16 20 -83z m330 49 c13 -14 21
-31 19 -37 -5 -16 -38 -17 -44 -1 -10 28 -42 37 -69 19 -19 -12 -24 -24 -24
-56 0 -22 5 -49 10 -60 15 -26 66 -26 80 1 9 17 50 29 50 15 0 -21 -35 -66
-55 -71 -20 -5 -22 -9 -13 -24 13 -21 -4 -50 -28 -50 -17 0 -19 17 -3 22 17 6
-9 44 -38 57 -13 6 -31 28 -39 48 -28 66 -2 144 56 166 28 11 75 -3 98 -29z
m199 -69 c17 -55 32 -106 32 -112 2 -24 -39 -14 -49 12 -8 20 -16 25 -45 25
-29 0 -37 -5 -45 -25 -6 -15 -17 -25 -30 -25 -11 0 -20 3 -20 6 0 10 61 207
67 217 3 5 17 7 31 5 24 -3 29 -12 59 -103z m192 91 c56 -30 71 -131 25 -185
-21 -26 -33 -31 -69 -31 -36 0 -48 5 -69 31 -45 53 -31 154 25 185 31 17 54
17 88 0z"/>
<path d="M11864 3776 c-3 -8 -4 -25 -2 -38 2 -18 9 -23 33 -23 24 0 31 5 33
24 6 39 -51 71 -64 37z"/>
<path d="M12057 3783 c-4 -3 -7 -19 -7 -35 0 -24 4 -28 29 -28 38 0 53 36 25
57 -20 14 -37 17 -47 6z"/>
<path d="M12262 3774 c-17 -12 -22 -25 -22 -63 0 -51 12 -71 45 -71 52 0 76
89 35 130 -24 24 -29 24 -58 4z"/>
<path d="M12460 3710 l0 -70 29 0 c36 0 61 31 61 76 0 37 -26 64 -63 64 -27 0
-27 -1 -27 -70z"/>
<path d="M13126 3747 c-3 -14 -9 -32 -12 -41 -5 -12 0 -16 20 -16 24 0 26 3
20 28 -12 47 -21 57 -28 29z"/>
<path d="M13329 3783 c-19 -5 -39 -44 -39 -76 0 -33 28 -67 54 -67 29 0 44 17
52 57 10 49 -26 95 -67 86z"/>
<path d="M10681 6344 c0 -11 3 -14 6 -6 3 7 2 16 -1 19 -3 4 -6 -2 -5 -13z"/>
<path d="M10682 6130 c0 -14 2 -19 5 -12 2 6 2 18 0 25 -3 6 -5 1 -5 -13z"/>
<path d="M819 29 c23 -19 37 -20 412 -17 354 3 390 5 406 21 16 16 -3 17 -412
17 l-430 -1 24 -20z"/>
</g>
</svg>
